<svg width="35" height="35" viewBox="0 0 35 35" fill="none" xmlns="http://www.w3.org/2000/svg">
<g opacity="0.5">
<path d="M10.507 11.029C10.9599 10.6293 11.003 9.93812 10.6032 9.48523C10.2035 9.03234 9.51234 8.98924 9.05945 9.38897C6.41211 11.7255 4.73975 15.1477 4.73975 18.959C4.73975 19.5631 5.22943 20.0528 5.8335 20.0528C6.43756 20.0528 6.92725 19.5631 6.92725 18.959C6.92725 15.8013 8.31016 12.968 10.507 11.029Z" fill="#C200C2"/>
<path d="M25.9409 9.38897C25.488 8.98924 24.7968 9.03234 24.3971 9.48523C23.9974 9.93812 24.0405 10.6293 24.4933 11.029C26.6902 12.968 28.0731 15.8013 28.0731 18.959C28.0731 19.5631 28.5628 20.0528 29.1668 20.0528C29.7709 20.0528 30.2606 19.5631 30.2606 18.959C30.2606 15.1477 28.5882 11.7255 25.9409 9.38897Z" fill="#C200C2"/>
<path d="M14.8561 29.1989C14.2711 29.0484 13.6748 29.4005 13.5243 29.9855C13.3737 30.5705 13.7259 31.1668 14.3109 31.3174C15.3314 31.58 16.4003 31.7195 17.5002 31.7195C18.6 31.7195 19.6689 31.58 20.6895 31.3174C21.2745 31.1668 21.6266 30.5705 21.4761 29.9855C21.3255 29.4005 20.7292 29.0484 20.1442 29.1989C19.3003 29.4161 18.4146 29.532 17.5002 29.532C16.5858 29.532 15.7 29.4161 14.8561 29.1989Z" fill="#C200C2"/>
</g>
<path d="M13.1252 8.75C13.1252 11.1662 15.0839 13.125 17.5002 13.125C19.9164 13.125 21.8752 11.1662 21.8752 8.75C21.8752 6.33375 19.9164 4.375 17.5002 4.375C15.0839 4.375 13.1252 6.33375 13.1252 8.75Z" fill="#C200C2"/>
<path d="M3.646 26.25C3.646 28.6662 5.60475 30.625 8.021 30.625C10.4372 30.625 12.396 28.6662 12.396 26.25C12.396 23.8338 10.4372 21.875 8.021 21.875C5.60475 21.875 3.646 23.8338 3.646 26.25Z" fill="#C200C2"/>
<path d="M26.9793 30.625C24.5631 30.625 22.6043 28.6662 22.6043 26.25C22.6043 23.8338 24.5631 21.875 26.9793 21.875C29.3956 21.875 31.3543 23.8338 31.3543 26.25C31.3543 28.6662 29.3956 30.625 26.9793 30.625Z" fill="#C200C2"/>
</svg>
